<svg width="288" height="300" viewBox="0 0 288 300" fill="none" xmlns="http://www.w3.org/2000/svg">
<path d="M127.843 168.639L157.858 108.125L220.735 204.033L210.72 218.881L127.843 168.639Z" fill="#B598F1"/>
<path d="M181.857 0.860672L110.648 89.6556L158.303 91.451L227.165 196.025L243.019 173.283L181.857 0.860672Z" fill="#B598F1"/>
<path d="M246.505 184.893L287.164 299.249L118.843 258.243L104.126 245.745L212.659 232.02L246.505 184.893Z" fill="#5225AB"/>
<path d="M0.133118 229.097L103.855 98.9626L120.53 99.4077L61.2078 220.911L90.7567 246.5L98.1727 253.046L0.133118 229.097Z" fill="#7D49E6"/>
<path d="M123.189 176.301L76.8134 222.178L94.5888 237.769L200.524 223.321L123.189 176.301Z" fill="#5225AB"/>
<path d="M150.804 100.281L117.681 166.928L76.6498 208.694L130.347 99.3425L150.804 100.281Z" fill="#7D49E6"/>
</svg>
